<?xml version="1.0" standalone="no"?><!DOCTYPE svg PUBLIC "-//W3C//DTD SVG 1.1//EN" "http://www.w3.org/Graphics/SVG/1.1/DTD/svg11.dtd"><svg t="1682333084148" class="icon" viewBox="0 0 1024 1024" version="1.1" xmlns="http://www.w3.org/2000/svg" p-id="3869" xmlns:xlink="http://www.w3.org/1999/xlink" width="32" height="32"><path d="M371.206 625.545c39.182 0 70.945 31.762 70.945 70.944v165.404H300.262V696.49c0-39.182 31.763-70.944 70.944-70.944z" fill="#A5E8D0" p-id="3870"></path><path d="M74.248 859.277H950.14c20.165 0 36.512 16.347 36.512 36.512s-16.347 36.512-36.512 36.512H74.248c-20.165 0-36.512-16.347-36.512-36.512s16.347-36.512 36.512-36.512z m98.627-694.848v692.604h396.662V164.43H172.875z m-37.6-75.2h471.862c20.766 0 37.6 16.834 37.6 37.6v767.804c0 20.766-16.834 37.6-37.6 37.6H135.275c-20.766 0-37.6-16.834-37.6-37.6V126.83c0-20.766 16.834-37.6 37.6-37.6z m510.94 767.804h208.456V495.665H646.216v361.368z m-37.6-436.568h283.656c20.766 0 37.6 16.834 37.6 37.6v436.568c0 20.766-16.834 37.6-37.6 37.6H608.616c-20.766 0-37.6-16.834-37.6-37.6V458.065c0-20.766 16.834-37.6 37.6-37.6z" fill="#4CA7FF" p-id="3871"></path></svg>