<?xml version="1.0" standalone="no"?><!DOCTYPE svg PUBLIC "-//W3C//DTD SVG 1.1//EN" "http://www.w3.org/Graphics/SVG/1.1/DTD/svg11.dtd"><svg t="1682333044479" class="icon" viewBox="0 0 1024 1024" version="1.1" xmlns="http://www.w3.org/2000/svg" p-id="2117" xmlns:xlink="http://www.w3.org/1999/xlink" width="32" height="32"><path d="M150.6 694.6v215.8h215.345V694.6H150.6z m0-75.2h215.345c41.532 0 75.2 33.668 75.2 75.2v215.8c0 41.532-33.668 75.2-75.2 75.2H150.6C109.068 985.6 75.4 951.932 75.4 910.4V694.6c0-41.532 33.668-75.2 75.2-75.2z m508.455 75.2v215.8H874.4V694.6H659.055z m0-75.2H874.4c41.532 0 75.2 33.668 75.2 75.2v215.8c0 41.532-33.668 75.2-75.2 75.2H659.055c-41.532 0-75.2-33.668-75.2-75.2V694.6c0-41.532 33.668-75.2 75.2-75.2z" fill="#4CA7FF" p-id="2118"></path><path d="M803.765 546.118c0.236 1.19 0.36 2.422 0.36 3.682v71.525c0 10.383-8.417 18.8-18.8 18.8H750.3c-10.383 0-18.8-8.417-18.8-18.8v-37.013H294.125v37.013c0 10.383-8.417 18.8-18.8 18.8H240.3c-10.383 0-18.8-8.417-18.8-18.8V549.8c0-1.26 0.124-2.491 0.36-3.682 0.98-19.18 16.841-34.43 36.265-34.43h218.063V366h72.625v145.688H767.5c19.424 0 35.285 15.25 36.265 34.43z" fill="#4CA7FF" p-id="2119"></path><path d="M331 76m181.5 0l0 0q181.5 0 181.5 181.5l0 0q0 181.5-181.5 181.5l0 0q-181.5 0-181.5-181.5l0 0q0-181.5 181.5-181.5Z" fill="#A5E8D0" p-id="2120"></path></svg>