<?xml version="1.0" standalone="no"?><!DOCTYPE svg PUBLIC "-//W3C//DTD SVG 1.1//EN" "http://www.w3.org/Graphics/SVG/1.1/DTD/svg11.dtd"><svg t="1682333091971" class="icon" viewBox="0 0 1024 1024" version="1.1" xmlns="http://www.w3.org/2000/svg" p-id="4185" xmlns:xlink="http://www.w3.org/1999/xlink" width="32" height="32"><path d="M545.49 124.06a61.815 61.815 0 0 0-67.118-0.007L193.265 308.314a61.815 61.815 0 0 0-18.356 18.352c-18.537 28.669-10.324 66.936 18.345 85.473L478.55 596.613a61.815 61.815 0 0 0 67.117 0.007l285.107-184.262a61.815 61.815 0 0 0 18.356-18.352c18.537-28.668 10.324-66.936-18.344-85.473L545.49 124.06z m40.832-63.149l285.296 184.473c63.544 41.089 81.749 125.91 40.66 189.454a137.015 137.015 0 0 1-40.686 40.678L586.485 659.778c-45.274 29.26-103.5 29.254-148.767-0.017L152.422 475.288c-63.545-41.088-81.75-125.91-40.661-189.454a137.015 137.015 0 0 1 40.686-40.677L437.554 60.895c45.275-29.26 103.5-29.254 148.768 0.016z m272.796 636.427c17.441-11.272 40.717-6.271 51.989 11.17 11.271 17.44 6.27 40.716-11.17 51.987L579.55 967.558c-43.932 28.393-100.439 28.378-144.376-0.032L114.676 760.29c-17.439-11.276-22.434-34.553-11.159-51.99 11.276-17.439 34.553-22.435 51.99-11.159l320.499 207.235c19.096 12.348 43.646 12.354 62.726 0.023l320.386-207.062z" fill="#4CA7FF" p-id="4186"></path><path d="M859.118 541.904c17.441-11.272 40.717-6.271 51.989 11.17 11.271 17.44 6.27 40.716-11.17 51.987L579.55 812.124c-43.932 28.393-100.439 28.378-144.376-0.032L114.676 604.857c-17.439-11.276-22.434-34.553-11.159-51.99 11.276-17.439 34.553-22.435 51.99-11.159l320.499 207.235c19.096 12.348 43.646 12.354 62.726 0.023l320.386-207.062z" fill="#A5E8D0" p-id="4187"></path></svg>