<?xml version="1.0" standalone="no"?><!DOCTYPE svg PUBLIC "-//W3C//DTD SVG 1.1//EN" "http://www.w3.org/Graphics/SVG/1.1/DTD/svg11.dtd"><svg t="1682333117954" class="icon" viewBox="0 0 1024 1024" version="1.1" xmlns="http://www.w3.org/2000/svg" p-id="5454" xmlns:xlink="http://www.w3.org/1999/xlink" width="32" height="32"><path d="M788 239m-174 0a174 174 0 1 0 348 0 174 174 0 1 0-348 0Z" fill="#A5E8D0" p-id="5455"></path><path d="M562.419 650.11L752.167 839.88l-62.698 62.807c-12.876 12.898-12.858 33.793 0.04 46.669A33 33 0 0 0 712.825 959H885c18.225 0 33-14.775 33-33V753.525c0-18.225-14.775-33-33-33a33 33 0 0 0-23.356 9.688l-54.185 54.286L617.752 594.77c-15.278-15.28-40.05-15.28-55.33-0.003l-0.003 0.003c-15.28 15.282-15.28 40.057 0 55.34z m-144.838 0L227.833 839.88l62.698 62.807c12.876 12.898 12.858 33.793-0.04 46.669A33 33 0 0 1 267.175 959H95c-18.225 0-33-14.775-33-33V753.525c0-18.225 14.775-33 33-33a33 33 0 0 1 23.356 9.688l54.185 54.286L362.248 594.77c15.278-15.28 40.05-15.28 55.33-0.003l0.003 0.003c15.28 15.282 15.28 40.057 0 55.34zM562.42 414.89L752.167 225.12 689.47 162.314c-12.876-12.898-12.858-33.793 0.04-46.669A33 33 0 0 1 712.825 106H885c18.225 0 33 14.775 33 33v172.475c0 18.225-14.775 33-33 33a33 33 0 0 1-23.356-9.688l-54.185-54.286L617.752 470.23c-15.278 15.28-40.05 15.28-55.33 0.003l-0.003-0.003c-15.28-15.282-15.28-40.057 0-55.34z m-144.838 0L227.833 225.12l62.698-62.807c12.876-12.898 12.858-33.793-0.04-46.669A33 33 0 0 0 267.175 106H95C76.775 106 62 120.775 62 139v172.475c0 18.225 14.775 33 33 33a33 33 0 0 0 23.356-9.688l54.185-54.286L362.248 470.23c15.278 15.28 40.05 15.28 55.33 0.003l0.003-0.003c15.28-15.282 15.28-40.057 0-55.34z" fill="#4CA7FF" p-id="5456"></path></svg>