<?xml version="1.0" standalone="no"?><!DOCTYPE svg PUBLIC "-//W3C//DTD SVG 1.1//EN" "http://www.w3.org/Graphics/SVG/1.1/DTD/svg11.dtd"><svg t="1682333112090" class="icon" viewBox="0 0 1024 1024" version="1.1" xmlns="http://www.w3.org/2000/svg" p-id="5138" xmlns:xlink="http://www.w3.org/1999/xlink" width="32" height="32"><path d="M746.959 515.959m-162.959 0a162.959 162.959 0 1 0 325.918 0 162.959 162.959 0 1 0-325.918 0Z" fill="#A5E8D0" p-id="5139"></path><path d="M514.626 918.619c-164.378 0-265.312-23.93-308.593-73.122-22.857-25.957-21.728-50.436-20.86-57.332 0.464-6.141 15.818-193.436 28.74-280.752-4.694-3.188-14.66-7.185-20.424-9.503a234.082 234.082 0 0 1-14.138-5.997c-19.063-8.952-58.637-28.564-58.637-28.564-49.19-22.598-78.364-51.336-85.549-84.943-5.765-26.912 4.056-50.09 15.151-62.836a41.602 41.602 0 0 1 4.26-4.2l231.27-197.318a40.646 40.646 0 0 1 64.98 17.933c25.35 75.063 98.82 86.303 140.392 86.303 11.067 0 18.106-0.869 18.164-0.898 3.57-0.44 7.181-0.43 10.749 0.03 0 0 6.895 0.84 17.585 0.84 40.761 0 112.839-11.184 137.754-86.13a40.703 40.703 0 0 1 65.27-17.933l227.94 197.317a38.599 38.599 0 0 1 4.201 4.23c10.98 12.747 20.655 35.952 14.862 62.78-7.185 33.43-35.953 62.111-85.492 85.172 0 0.03-38.183 19.236-56.724 28.073-4.172 1.97-8.923 3.94-13.964 5.997-5.62 2.288-15.383 6.257-19.961 9.414 12.805 88.07 27.898 274.872 28.536 282.839 0.696 5.1 1.767 29.724-21.264 55.827-43.108 48.99-142.622 72.773-304.248 72.773zM266.582 790.947c6.836 8.083 49.857 46.265 248.044 46.265 195.783 0 237.5-38.27 243.96-46.15-3.042-36.59-16.687-198.853-27.754-273.655-9.27-62.72 48.41-86.158 70.11-94.964 3.475-1.42 6.778-2.725 9.646-4.085 18.252-8.692 56.116-27.754 56.174-27.784 24.915-11.645 35.112-20.945 39.11-25.754L727.27 210.233c-53.77 79.64-147.026 89.433-189.526 89.433-10.11 0-18.164-0.55-23.118-0.985a260.33 260.33 0 0 1-23.408 0.985c-43.108 0-137.755-9.85-192.132-89.925L117.296 364.849c4.143 4.838 14.37 13.964 38.53 25.06 1.16 0.55 39.574 19.64 58.116 28.333 2.925 1.361 6.286 2.694 9.82 4.113 21.99 8.807 80.365 32.187 70.949 95.139-11.385 75.613-25.407 240.715-28.13 273.453z" fill="#4CA7FF" p-id="5140"></path></svg>