<?xml version="1.0" standalone="no"?><!DOCTYPE svg PUBLIC "-//W3C//DTD SVG 1.1//EN" "http://www.w3.org/Graphics/SVG/1.1/DTD/svg11.dtd"><svg t="1682333103565" class="icon" viewBox="0 0 1024 1024" version="1.1" xmlns="http://www.w3.org/2000/svg" p-id="4664" xmlns:xlink="http://www.w3.org/1999/xlink" width="32" height="32"><path d="M946.827 884.277L786.404 723.838c55.439-69.33 88.802-157.042 88.802-252.645C875.106 247.418 693.806 66 470.053 66 246.3 66 65 247.418 65 471.093s181.4 405.092 405.053 405.092c95.595 0 183.398-33.366 252.621-88.81l160.423 160.438c17.58 17.583 46.05 17.583 63.63 0 17.68-17.482 17.68-45.954 0.1-63.536z m-476.774-98.101c-174.008 0-315.052-141.058-315.052-315.083 0-174.025 141.044-315.084 315.052-315.084s315.052 141.059 315.052 315.084-141.044 315.083-315.052 315.083z" fill="#4CA7FF" p-id="4665"></path></svg>