<?xml version="1.0" standalone="no"?><!DOCTYPE svg PUBLIC "-//W3C//DTD SVG 1.1//EN" "http://www.w3.org/Graphics/SVG/1.1/DTD/svg11.dtd"><svg t="1682333071612" class="icon" viewBox="0 0 1024 1024" version="1.1" xmlns="http://www.w3.org/2000/svg" p-id="3392" xmlns:xlink="http://www.w3.org/1999/xlink" width="32" height="32"><path d="M723.17 314.227c19.982-7.272 42.074 3.03 49.347 23.01l78.322 215.19c7.273 19.98-3.03 42.074-23.01 49.346-19.98 7.272-42.073-3.03-49.346-23.01l-78.322-215.19c-7.273-19.98 3.03-42.074 23.01-49.346zM218.744 527.67c17.417-12.196 41.424-7.963 53.62 9.454L403.712 724.71c12.196 17.418 7.963 41.424-9.455 53.62-17.417 12.196-41.424 7.963-53.62-9.454L209.288 581.29c-12.196-17.418-7.963-41.424 9.455-53.62z m428.692-214.52c19.111 9.32 27.048 32.37 17.727 51.48L481.046 742.125c-9.321 19.111-32.37 27.047-51.481 17.726-19.111-9.32-27.048-32.37-17.727-51.48l184.116-377.494c9.321-19.111 32.37-27.047 51.481-17.726z" fill="#4CA7FF" p-id="3393"></path><path d="M856.5 824.6c-73.51 0-133.1-59.59-133.1-133.1 0-73.51 59.59-133.1 133.1-133.1 73.51 0 133.1 59.59 133.1 133.1 0 73.51-59.59 133.1-133.1 133.1z m0-75.2c31.977 0 57.9-25.923 57.9-57.9s-25.923-57.9-57.9-57.9-57.9 25.923-57.9 57.9 25.923 57.9 57.9 57.9z m-688-142.8C94.99 606.6 35.4 547.01 35.4 473.5c0-73.51 59.59-133.1 133.1-133.1 73.51 0 133.1 59.59 133.1 133.1 0 73.51-59.59 133.1-133.1 133.1z m0-75.2c31.977 0 57.9-25.923 57.9-57.9s-25.923-57.9-57.9-57.9-57.9 25.923-57.9 57.9 25.923 57.9 57.9 57.9z m519-150.8c-73.51 0-133.1-59.59-133.1-133.1C554.4 173.99 613.99 114.4 687.5 114.4c73.51 0 133.1 59.59 133.1 133.1 0 73.51-59.59 133.1-133.1 133.1z m0-75.2c31.977 0 57.9-25.923 57.9-57.9s-25.923-57.9-57.9-57.9-57.9 25.923-57.9 57.9 25.923 57.9 57.9 57.9z" fill="#4CA7FF" p-id="3394"></path><path d="M413 758m-153 0a153 153 0 1 0 306 0 153 153 0 1 0-306 0Z" fill="#A5E8D0" p-id="3395"></path></svg>