<?xml version="1.0" standalone="no"?><!DOCTYPE svg PUBLIC "-//W3C//DTD SVG 1.1//EN" "http://www.w3.org/Graphics/SVG/1.1/DTD/svg11.dtd"><svg t="1682333051155" class="icon" viewBox="0 0 1024 1024" version="1.1" xmlns="http://www.w3.org/2000/svg" p-id="2434" xmlns:xlink="http://www.w3.org/1999/xlink" width="32" height="32"><path d="M197.122 689.525C185.619 706.814 162.278 711.504 144.99 700c-17.29-11.503-21.979-34.843-10.476-52.132l130.66-196.37c23.71-35.344 69.157-48.636 108.093-31.689l138.306 60.383L633.49 344.835c13.898-15.43 37.672-16.672 53.102-2.774 15.43 13.897 16.672 37.672 2.774 53.102L549.31 550.66a37.6 37.6 0 0 1-42.982 9.295l-163.11-71.21c-5.577-2.428-12.092-0.534-15.488 4.489L197.122 689.525z" fill="#4CA7FF" p-id="2435"></path><path d="M562.705 329.673a124.717 124.62 0 1 0 249.434 0 124.717 124.62 0 1 0-249.434 0Z" fill="#A5E8D0" p-id="2436"></path><path d="M139.2 141.305v500.73h745.6V141.305H139.2zM471.273 876.79V717.235H139.2c-41.532 0-75.2-33.668-75.2-75.2V141.305C64 99.773 97.668 66.105 139.2 66.105h745.6c41.532 0 75.2 33.668 75.2 75.2v500.73c0 41.532-33.668 75.2-75.2 75.2H552.727V876.79H739.38c20.766 0 37.6 16.834 37.6 37.6v6.255c0 20.766-16.834 37.6-37.6 37.6H284.621c-20.766 0-37.6-16.834-37.6-37.6v-6.255c0-20.766 16.834-37.6 37.6-37.6h186.652z" fill="#4CA7FF" p-id="2437"></path></svg>