<?xml version="1.0" standalone="no"?><!DOCTYPE svg PUBLIC "-//W3C//DTD SVG 1.1//EN" "http://www.w3.org/Graphics/SVG/1.1/DTD/svg11.dtd"><svg t="1682333041299" class="icon" viewBox="0 0 1024 1024" version="1.1" xmlns="http://www.w3.org/2000/svg" p-id="1959" xmlns:xlink="http://www.w3.org/1999/xlink" width="32" height="32"><path d="M627.4 251c0-63.734-51.666-115.4-115.4-115.4-63.734 0-115.4 51.666-115.4 115.4v115.4h230.8V251zM512 60.4c105.265 0 190.6 85.335 190.6 190.6v190.6H321.4V251c0-105.265 85.335-190.6 190.6-190.6z" fill="#4CA7FF" p-id="1960"></path><path d="M165.6 440.6v448.8h692.8V440.6H165.6z m0-75.2h692.8c41.532 0 75.2 33.668 75.2 75.2v448.8c0 41.532-33.668 75.2-75.2 75.2H165.6c-41.532 0-75.2-33.668-75.2-75.2V440.6c0-41.532 33.668-75.2 75.2-75.2z" fill="#4CA7FF" p-id="1961"></path><path d="M512.5 621.5m-95.5 0a95.5 95.5 0 1 0 191 0 95.5 95.5 0 1 0-191 0Z" fill="#A5E8D0" p-id="1962"></path></svg>