<?xml version="1.0" standalone="no"?><!DOCTYPE svg PUBLIC "-//W3C//DTD SVG 1.1//EN" "http://www.w3.org/Graphics/SVG/1.1/DTD/svg11.dtd"><svg t="1682333089271" class="icon" viewBox="0 0 1024 1024" version="1.1" xmlns="http://www.w3.org/2000/svg" p-id="4028" xmlns:xlink="http://www.w3.org/1999/xlink" width="32" height="32"><path d="M895.755 83H641.05c-42.64 0-77.245 34.618-77.245 77.272v153h61.796v-153c0-8.551 6.9-15.454 15.45-15.454h254.6c8.548 0 15.449 6.903 15.449 15.454V852.22c0 8.551-6.9 15.454-15.45 15.454h-254.6c-8.548 0-15.449-6.903-15.449-15.454v-25.345h14.831c42.64 0 77.246-34.618 77.246-77.273v-358.44c0-42.654-34.606-77.272-77.246-77.272H128.245C85.605 313.89 51 348.507 51 391.161v358.44c0 42.655 34.606 77.273 77.245 77.273H296.64v51.308h-35.43c-17.097 0-30.898 13.806-30.898 30.91 0 17.102 13.801 30.908 30.898 30.908h245.95c17.096 0 30.897-13.806 30.897-30.909s-13.8-30.909-30.898-30.909h-35.842v-51.308h92.592v25.345c0 42.654 34.606 77.272 77.245 77.272h254.6c42.64 0 77.246-34.618 77.246-77.272V160.272C972.897 117.618 938.394 83 895.755 83zM135.252 381.98h510.274c8.517 0 15.392 6.563 15.392 14.694V632.28H119.86V396.576c0-8.033 6.875-14.596 15.391-14.596zM119.88 746.192v-46.25h541.038v46.25c0 8.098-6.875 14.636-15.391 14.636H135.27c-8.516 0-15.39-6.538-15.39-14.636z m294.677 131.166H365.9v-48.87h48.657v48.87z" fill="#4CA7FF" p-id="4029"></path><path d="M846.142 288C863.217 288 877 272.367 877 253s-13.783-35-30.858-35H702.858C685.783 218 672 233.633 672 253s13.783 35 30.858 35h143.284z" fill="#A5E8D0" p-id="4030"></path></svg>