<?xml version="1.0" standalone="no"?><!DOCTYPE svg PUBLIC "-//W3C//DTD SVG 1.1//EN" "http://www.w3.org/Graphics/SVG/1.1/DTD/svg11.dtd"><svg t="1682333094914" class="icon" viewBox="0 0 1024 1024" version="1.1" xmlns="http://www.w3.org/2000/svg" p-id="4344" xmlns:xlink="http://www.w3.org/1999/xlink" width="32" height="32"><path d="M164.415 140.2C151.04 140.2 140.2 151.041 140.2 164.415v394.522c0 13.374 10.841 24.215 24.215 24.215h695.5c13.373 0 24.214-10.841 24.214-24.215V164.415c0-13.374-10.841-24.215-24.215-24.215h-695.5z m0-75.2h695.5c54.905 0 99.414 44.51 99.414 99.415v394.522c0 54.905-44.51 99.415-99.415 99.415h-695.5C109.51 658.352 65 613.842 65 558.937V164.415C65 109.51 109.51 65 164.415 65z m51.217 820.654h593.066c20.466 0 37.058 16.591 37.058 37.058 0 20.466-16.592 37.058-37.058 37.058H215.632c-20.467 0-37.058-16.592-37.058-37.058 0-20.467 16.591-37.058 37.058-37.058z" fill="#4CA7FF" p-id="4345"></path><path d="M119.396 421.273h785.537v74.116H119.396z" fill="#4CA7FF" p-id="4346"></path><path d="M289.771 734.945m37.058 0l370.672 0q37.058 0 37.058 37.058l0 0q0 37.058-37.058 37.058l-370.672 0q-37.058 0-37.058-37.058l0 0q0-37.058 37.058-37.058Z" fill="#A5E8D0" p-id="4347"></path></svg>