<?xml version="1.0" standalone="no"?><!DOCTYPE svg PUBLIC "-//W3C//DTD SVG 1.1//EN" "http://www.w3.org/Graphics/SVG/1.1/DTD/svg11.dtd"><svg t="1682333063372" class="icon" viewBox="0 0 1024 1024" version="1.1" xmlns="http://www.w3.org/2000/svg" p-id="3069" xmlns:xlink="http://www.w3.org/1999/xlink" width="32" height="32"><path d="M202.859 142.875c-33.104 0-59.94 26.82-59.94 59.906V821.22c0 33.085 26.836 59.906 59.94 59.906h619.282c33.104 0 59.94-26.82 59.94-59.906V202.78c0-33.085-26.836-59.906-59.94-59.906H202.859z m0-79.875h619.282C899.383 63 962 125.582 962 202.781V821.22C962 898.418 899.383 961 822.141 961H202.859C125.617 961 63 898.418 63 821.219V202.78C63 125.582 125.617 63 202.859 63z" fill="#4CA7FF" p-id="3070"></path><path d="M445.11 469.482l266.56-266.56c14.557-14.557 38.157-14.557 52.714 0 14.556 14.556 14.556 38.156 0 52.713L474.472 545.547c-8.04 8.039-18.837 11.638-29.346 10.798-10.52 0.85-21.33-2.749-29.377-10.796L257.616 387.416c-14.556-14.556-14.556-38.157 0-52.713 14.557-14.557 38.157-14.557 52.714 0l134.78 134.78z m-306.836 153.97h745.452c20.586 0 37.274 16.688 37.274 37.274C921 681.312 904.312 698 883.726 698H138.274C117.688 698 101 681.312 101 660.726c0-20.586 16.688-37.274 37.274-37.274z" fill="#4CA7FF" p-id="3071"></path><path d="M251.265 857C215.22 857 186 827.675 186 791.5s29.22-65.5 65.265-65.5c36.044 0 65.264 29.325 65.264 65.5S287.31 857 251.265 857z m186.47 0c-36.044 0-65.264-29.325-65.264-65.5s29.22-65.5 65.264-65.5C473.78 726 503 755.325 503 791.5S473.78 857 437.735 857z" fill="#A5E8D0" p-id="3072"></path></svg>