<?xml version="1.0" standalone="no"?><!DOCTYPE svg PUBLIC "-//W3C//DTD SVG 1.1//EN" "http://www.w3.org/Graphics/SVG/1.1/DTD/svg11.dtd"><svg t="1682333109470" class="icon" viewBox="0 0 1024 1024" version="1.1" xmlns="http://www.w3.org/2000/svg" p-id="4980" xmlns:xlink="http://www.w3.org/1999/xlink" width="32" height="32"><path d="M359 669.5c0 84.776 68.724 153.5 153.5 153.5S666 754.276 666 669.5c0-54.84-29.257-105.515-76.75-132.935-47.493-27.42-106.007-27.42-153.5 0C388.257 563.985 359 614.66 359 669.5z" fill="#A5E8D0" p-id="4981"></path><path d="M887.68 326.615h-98.778v-13.042C788.902 185.34 684.464 81 556.112 81h-87.34c-128.352 0-232.79 104.34-232.79 232.573v13.042h-98.777C97.348 326.615 65 359.048 65 398.753v473.11C65 911.682 97.464 944 137.205 944h750.59C927.652 944 960 911.567 960 871.862V398.753c-0.116-39.82-32.464-72.138-72.32-72.138z m-571.405-13.042c0-84.027 68.393-152.356 152.497-152.356h87.34c84.105 0 152.498 68.33 152.498 152.356v13.042H316.275v-13.042z m563.317 550.325H145.177V406.832h734.53v457.066h-0.115z" fill="#4CA7FF" p-id="4982"></path><path d="M511.103 705h2.794c21.53 0 39.103-17.532 39.103-39.01V514.01c0-21.478-17.573-39.01-39.103-39.01h-2.794C489.573 475 472 492.532 472 514.01v151.98c0 21.478 17.573 39.01 39.103 39.01z" fill="#4CA7FF" p-id="4983"></path></svg>