<?xml version="1.0" standalone="no"?><!DOCTYPE svg PUBLIC "-//W3C//DTD SVG 1.1//EN" "http://www.w3.org/Graphics/SVG/1.1/DTD/svg11.dtd"><svg t="1682671149518" class="icon" viewBox="0 0 1024 1024" version="1.1" xmlns="http://www.w3.org/2000/svg" p-id="15513" width="32" height="32"><path d="M576.1 794.8H238.5c-40.5 0-73.4-32.9-73.4-73.4v-419c0-40.5 32.9-73.4 73.4-73.4h547.2c40.5 0 73.4 32.9 73.4 73.4V512c0 14.9-12.1 27-27 27s-27-12.1-27-27V302.4c0-10.7-8.7-19.4-19.4-19.4H238.5c-10.7 0-19.4 8.7-19.4 19.4v419c0 10.7 8.7 19.4 19.4 19.4h337.6c14.9 0 27 12.1 27 27s-12.1 27-27 27z" p-id="15514" fill="darkorange"></path><path d="M673.1 448.4h-386c-14.9 0-27-12.1-27-27s12.1-27 27-27h386c14.9 0 27 12.1 27 27 0 15-12.1 27-27 27zM486 577.9H281.8c-14.9 0-27-12.1-27-27s12.1-27 27-27H486c14.9 0 27 12.1 27 27s-12.1 27-27 27z" p-id="15515" fill="darkorange"></path><path d="M836.4 684.2h-223c-14.9 0-27-12.1-27-27s12.1-27 27-27h223c14.9 0 27 12.1 27 27s-12.1 27-27 27z" p-id="15516" fill="darkorange"></path><path d="M724.9 794.6c-14.9 0-27-12.1-27-27V546.7c0-14.9 12.1-27 27-27s27 12.1 27 27v220.9c0 14.9-12.1 27-27 27z" p-id="15517" fill="darkorange"></path></svg>