<?xml version="1.0" standalone="no"?><!DOCTYPE svg PUBLIC "-//W3C//DTD SVG 1.1//EN" "http://www.w3.org/Graphics/SVG/1.1/DTD/svg11.dtd"><svg t="1682326505030" class="icon" viewBox="0 0 1024 1024" version="1.1" xmlns="http://www.w3.org/2000/svg" p-id="55353" width="32" height="32"><path d="M768 793.6c0 28.16-23.04 51.2-51.2 51.2H204.8c-28.16 0-51.2-23.04-51.2-51.2V281.6c0-28.16 23.04-51.2 51.2-51.2h512c28.16 0 51.2 23.04 51.2 51.2v76.8h51.2v-76.8c0-56.32-46.08-102.4-102.4-102.4H204.8c-56.32 0-102.4 46.08-102.4 102.4v512c0 56.32 46.08 102.4 102.4 102.4h512c56.32 0 102.4-46.08 102.4-102.4v-76.8h-51.2v76.8z m128-281.6H343.04l133.12-133.12c10.24-10.24 10.24-25.6 0-35.84-10.24-10.24-25.6-10.24-35.84 0l-176.64 176.64c-5.12 5.12-7.68 12.8-7.68 20.48 0 7.68 2.56 12.8 7.68 20.48l176.64 176.64c10.24 10.24 25.6 10.24 35.84 0 10.24-10.24 10.24-25.6 0-35.84L343.04 563.2H896c15.36 0 25.6-10.24 25.6-25.6 0-12.8-10.24-25.6-25.6-25.6z" fill="#409eff" p-id="55354"></path></svg>