<?xml version="1.0" standalone="no"?><!DOCTYPE svg PUBLIC "-//W3C//DTD SVG 1.1//EN" "http://www.w3.org/Graphics/SVG/1.1/DTD/svg11.dtd"><svg t="1682326620644" class="icon" viewBox="0 0 1024 1024" version="1.1" xmlns="http://www.w3.org/2000/svg" p-id="55866" width="32" height="32"><path d="M545.28 696.32c-10.24 10.24-10.24 25.6 0 35.84 10.24 10.24 25.6 10.24 35.84 0l176.64-176.64c5.12-5.12 7.68-12.8 7.68-20.48 0-7.68-2.56-12.8-7.68-20.48l-176.64-176.64c-10.24-10.24-25.6-10.24-35.84 0-10.24 10.24-10.24 25.6 0 35.84l133.12 133.12H128c-15.36 0-25.6 10.24-25.6 25.6s10.24 25.6 25.6 25.6h552.96l-135.68 138.24zM819.2 179.2H307.2c-56.32 0-102.4 46.08-102.4 102.4v102.4h51.2v-102.4c0-28.16 23.04-51.2 51.2-51.2h512c28.16 0 51.2 23.04 51.2 51.2v512c0 28.16-23.04 51.2-51.2 51.2H307.2c-28.16 0-51.2-23.04-51.2-51.2v-102.4H204.8v102.4c0 56.32 46.08 102.4 102.4 102.4h512c56.32 0 102.4-46.08 102.4-102.4V281.6c0-56.32-46.08-102.4-102.4-102.4z" fill="#409eff" p-id="55867"></path></svg>