<?xml version="1.0" standalone="no"?><!DOCTYPE svg PUBLIC "-//W3C//DTD SVG 1.1//EN" "http://www.w3.org/Graphics/SVG/1.1/DTD/svg11.dtd"><svg t="1682788298042" class="icon" viewBox="0 0 1024 1024" version="1.1" xmlns="http://www.w3.org/2000/svg" p-id="5772" width="30" height="30"><path d="M671.58922773 433.31981264H352.05884811c-18.06544025 0-32.71218864-14.64674841-32.71218864-32.71218864v-138.37322834c0-52.25235871 42.51579027-94.75139069 94.75139067-94.75139068H609.53326739c52.25235871 0 94.76814897 42.51579027 94.768149 94.75139068v138.37322834c0 18.08219854-14.64674841 32.71218864-32.71218866 32.71218864z m-286.81819098-65.407619h254.10600231v-105.67779798c0-16.18851139-13.17201858-29.34377169-29.36052995-29.34377168h-195.40170067c-16.18851139 0-29.34377169 13.15526029-29.34377169 29.34377168v105.67779798z" fill="#a5e8d0" p-id="5773" data-spm-anchor-id="a313x.7781069.0.i11" class=""></path><path d="M761.3298887 854.33841691H262.31818713c-48.63256734 0-88.06483164-39.4322643-88.06483163-88.06483165v-378.23468129c0-48.63256734 39.4322643-88.06483164 88.06483163-88.06483165h498.99494329c48.63256734 0 88.06483164 39.4322643 88.06483163 88.06483165v378.23468129c0 48.63256734-39.41550599 88.06483164-88.04807335 88.06483165z" fill="#4ca7ff" p-id="5774" data-spm-anchor-id="a313x.7781069.0.i6" class=""></path><path d="M511.89945024 668.01971125c-71.54115438 0-129.72594896-58.20155286-129.72594895-129.72594897V497.08511891c0-18.06544025 14.64674841-32.71218864 32.71218866-32.71218867s32.71218864 14.64674841 32.71218864 32.71218867v41.20864337c0 35.46054877 28.85778117 64.31832993 64.31832994 64.31832997 35.47730704 0 64.33508825-28.85778117 64.33508823-64.31832997V497.08511891c0-18.06544025 14.64674841-32.71218864 32.71218865-32.71218867s32.71218864 14.64674841 32.71218868 32.71218867v41.20864337c-0.03351658 71.52439609-58.23506945 129.72594896-129.77622385 129.72594897z" fill="#83d5c2" p-id="5775" data-spm-anchor-id="a313x.7781069.0.i10" class=""></path><path d="M174.27011379 464.35617196h675.12460656v65.40761903H174.27011379z" fill="#a5e8d0" p-id="5776" data-spm-anchor-id="a313x.7781069.0.i9" class=""></path></svg>