<?xml version="1.0" standalone="no"?><!DOCTYPE svg PUBLIC "-//W3C//DTD SVG 1.1//EN" "http://www.w3.org/Graphics/SVG/1.1/DTD/svg11.dtd"><svg t="1682333060140" class="icon" viewBox="0 0 1024 1024" version="1.1" xmlns="http://www.w3.org/2000/svg" p-id="2908" xmlns:xlink="http://www.w3.org/1999/xlink" width="32" height="32"><path d="M651.379 406.591m-142.75 0a142.75 142.75 0 1 0 285.5 0 142.75 142.75 0 1 0-285.5 0Z" fill="#A5E8D0" p-id="2909"></path><path d="M272.243 858.568v75.2H111.312c-40.533 0-73.98-32.15-73.98-72.57V161.802c0-40.42 33.447-72.57 73.98-72.57h800.376c40.533 0 73.98 32.15 73.98 72.57v93.98h-75.2v-91.35H112.532v694.136h159.712zM196.772 301.68H371.62v69.94H196.77v-69.94z m0 209.819H371.62v69.94H196.77V511.5z m736.746 314.193l4.856 41.911-573.958 0.22 4.82-41.912C385.129 687.764 506.669 582.79 651.39 582.79c144.638 0 266.132 104.855 282.128 242.903zM651.39 657.99c-91.435 0-169.694 56.095-197.694 134.6l395.334-0.151c-28.048-78.43-106.268-134.45-197.64-134.45z" fill="#4CA7FF" p-id="2910"></path></svg>