<?xml version="1.0" standalone="no"?><!DOCTYPE svg PUBLIC "-//W3C//DTD SVG 1.1//EN" "http://www.w3.org/Graphics/SVG/1.1/DTD/svg11.dtd"><svg t="1682333025603" class="icon" viewBox="0 0 1024 1024" version="1.1" xmlns="http://www.w3.org/2000/svg" p-id="1478" xmlns:xlink="http://www.w3.org/1999/xlink" width="32" height="32"><path d="M337 823.5c0 96.926 78.574 175.5 175.5 175.5S688 920.426 688 823.5 609.426 648 512.5 648 337 726.574 337 823.5z" fill="#A5E8D0" p-id="1479"></path><path d="M270.58 759.693V438.56c-0.108-133.55 108.436-242.148 241.92-242.148 133.484 0 242.028 108.598 242.028 242.148v321.24h80.025v-321.24c0-164.036-123.291-299.756-281.932-319.5V65.032C552.621 42.9 534.729 25 512.608 25c-22.12 0-40.012 17.9-40.012 40.033v54.027c-158.75 19.745-281.932 155.465-281.932 319.501v321.24s79.917 0 79.917-0.108z m627.407-14.758H127.013c-22.121 0-40.013 17.9-40.013 40.032C87 807.1 104.892 825 127.013 825h770.974C920.108 825 938 807.1 938 784.967c0-22.131-17.892-40.032-40.013-40.032z" fill="#3FA1FF" p-id="1480"></path></svg>