<?xml version="1.0" standalone="no"?><!DOCTYPE svg PUBLIC "-//W3C//DTD SVG 1.1//EN" "http://www.w3.org/Graphics/SVG/1.1/DTD/svg11.dtd"><svg t="1682696571407" class="icon" viewBox="0 0 1026 1024" version="1.1" xmlns="http://www.w3.org/2000/svg" p-id="5427" width="32" height="32"><path d="M461.603279 939.71796l-330.039015-3.938413a47.260957 47.260957 0 0 1-47.260957-48.836322A363.121685 363.121685 0 0 1 417.493053 531.698367h40.171813a270.175136 270.175136 0 0 0 143.358236-43.322544l14.965969-10.239874a269.387454 269.387454 0 0 0 103.974105-208.735892 265.449041 265.449041 0 0 0-14.96597-90.583501l-4.726095-12.602922A268.599771 268.599771 0 0 0 452.93877 0.012603a254.421484 254.421484 0 0 0-181.954683 74.042166 264.661358 264.661358 0 0 0-78.768262 188.256144A268.599771 268.599771 0 0 0 287.525421 472.622171H283.587008A445.040676 445.040676 0 0 0 0.021268 885.36786a131.542996 131.542996 0 0 0 129.967631 133.906044l330.039015 4.726096a41.747178 41.747178 0 0 0 37.808765-40.959496 38.596448 38.596448 0 0 0-37.808765-42.534861zM274.134817 263.886278v-9.452191a182.742366 182.742366 0 0 1 184.317732-170.927127 182.742366 182.742366 0 0 1 181.167001 185.105414 182.742366 182.742366 0 1 1-365.484733-4.726096zM777.464007 664.029046H748.31975a105.54947 105.54947 0 1 0 74.042166 181.954683 101.611057 101.611057 0 0 0 29.931939-91.371183 104.761788 104.761788 0 0 0-74.829848-90.5835z m-28.356574 140.207505a40.959496 40.959496 0 0 1 0-78.768261 40.959496 40.959496 0 0 1 40.959496 41.747178 41.747178 41.747178 0 0 1-40.959496 37.021083z" p-id="5428" data-spm-anchor-id="a313x.7781069.0.i9" class="" fill="#4ca7ff"></path><path d="M1024.008665 765.640103a251.270754 251.270754 0 0 0 0-33.08267V708.926955a43.322544 43.322544 0 0 0-36.2334-37.021083h-4.726096a51.19937 51.19937 0 0 1-51.19937-53.562418 58.288513 58.288513 0 0 1 0-12.602922 66.16534 66.16534 0 0 0 0-7.089143 49.624005 49.624005 0 0 0-15.753652-55.137783l-63.014609-35.445718a33.870352 33.870352 0 0 0-22.842796 0 62.226926 62.226926 0 0 0-33.08267 18.1167 78.768261 78.768261 0 0 1-44.110226 25.205844 101.611057 101.611057 0 0 1-38.596448-22.055113L708.93562 520.67081a59.863879 59.863879 0 0 0-29.93194-14.965969 30.719622 30.719622 0 0 0-19.692065 5.513778l-68.528387 33.870352a51.19937 51.19937 0 0 0-16.541335 55.137783 70.103753 70.103753 0 0 1 0 21.267431 51.19937 51.19937 0 0 1-51.987053 51.19937 44.110226 44.110226 0 0 0-41.747178 36.2334 315.073045 315.073045 0 0 0-7.876826 54.3501 164.625666 164.625666 0 0 0 6.30146 55.137783 43.322544 43.322544 0 0 0 36.233401 36.2334h4.726095a51.19937 51.19937 0 0 1 51.19937 52.774735 58.288513 58.288513 0 0 1 0 11.815239 55.925466 55.925466 0 0 0 0 7.876827 49.624005 49.624005 0 0 0 15.753652 55.925465l65.377657 37.808766a48.836322 48.836322 0 0 0 28.356574 0 55.137783 55.137783 0 0 0 27.568892-18.116701c7.089144-7.089144 26.781209-25.205844 41.747178-25.993526a78.768261 78.768261 0 0 1 42.534862 27.568892 50.411687 50.411687 0 0 0 35.445717 16.541335 37.808765 37.808765 0 0 0 20.479748 0l64.589974-33.870353a45.685592 45.685592 0 0 0 16.541335-55.925465 70.103753 70.103753 0 0 1 0-19.692066 51.19937 51.19937 0 0 1 52.774735-51.19937h3.938413a42.534861 42.534861 0 0 0 37.021083-36.2334 166.988714 166.988714 0 0 0 0.787683-58.288513z m-67.740705 31.507304a111.063248 111.063248 0 0 0-65.377657 35.445718 110.275566 110.275566 0 0 0-28.356574 78.768261 89.795818 89.795818 0 0 0 4.726096 27.568892l-39.384131 20.479748-14.96597-14.178287a109.487883 109.487883 0 0 0-63.802291-22.842796 118.940075 118.940075 0 0 0-64.589974 22.055113l-7.876827 6.301461-7.089143 5.513778-39.384131-21.26743a85.069722 85.069722 0 0 0 5.513778-27.568892 113.426296 113.426296 0 0 0-26.781208-78.768261 114.213979 114.213979 0 0 0-63.014609-37.808765V787.695216a185.893097 185.893097 0 0 1 0-22.842796 124.453853 124.453853 0 0 1 0-17.329017v-11.027557H551.399097a111.063248 111.063248 0 0 0 64.589974-35.445717 110.275566 110.275566 0 0 0 28.356574-78.768262 89.008135 89.008135 0 0 0-4.726095-27.568891l38.596448-20.479748a84.28204 84.28204 0 0 0 14.178287 11.027556 110.275566 110.275566 0 0 0 59.863878 22.842796 110.275566 110.275566 0 0 0 60.651561-22.055113l11.027557-8.664509 38.596448 21.267431a89.795818 89.795818 0 0 0-4.726096 27.568891 112.638614 112.638614 0 0 0 26.781209 78.768262 114.213979 114.213979 0 0 0 63.802292 37.808765v7.876826a174.077858 174.077858 0 0 1 0 23.630479 121.303122 121.303122 0 0 1 0 28.356574z" p-id="5429" data-spm-anchor-id="a313x.7781069.0.i11" class="" fill="#a5e8d0"></path></svg>